<svg width="174" height="25" viewBox="0 0 174 25" fill="none" xmlns="http://www.w3.org/2000/svg">
<path d="M23.968 24H17.408L16.256 20.576H8.032L6.784 24H0.288L9.792 0.32H14.56L23.968 24ZM14.656 15.776L12.224 7.712L12.128 7.68L9.696 15.776H14.656ZM31.45 24H26.138V6.24H31.13V8.128H31.194C32.122 6.24 33.594 5.632 35.642 5.632V10.976C32.474 11.008 31.45 12.192 31.45 14.208V24ZM58.307 24H51.235L44.771 13.76H44.707V24H38.659V0.32H44.707V10.976H44.771L51.459 0.32H57.795L49.955 12.128L58.307 24ZM77.6385 24H72.3265V22.08H72.2625C71.4945 23.648 69.3825 24.608 67.0465 24.608C61.7985 24.608 58.1505 20.48 58.1505 15.104C58.1505 9.856 61.9585 5.632 67.0465 5.632C69.2225 5.632 71.2385 6.496 72.2625 8.128H72.3265V6.24H77.6385V24ZM67.8785 19.648C70.3745 19.648 72.3265 17.664 72.3265 15.104C72.3265 12.608 70.3105 10.592 67.8145 10.592C65.3825 10.592 63.4625 12.608 63.4625 15.168C63.4625 17.632 65.4145 19.648 67.8785 19.648ZM101.706 24H96.4578L87.3698 9.536L87.5298 24H81.7378V0.32H86.9538L96.1698 15.296L95.9138 0.32H101.706V24ZM124.099 15.04C124.099 20.608 119.875 24.544 114.531 24.544C109.123 24.544 104.963 20.544 104.963 15.104C104.963 9.6 109.219 5.664 114.531 5.664C119.875 5.664 124.099 9.664 124.099 15.04ZM114.531 19.584C117.027 19.584 118.787 17.472 118.787 15.104C118.787 12.736 116.995 10.624 114.499 10.624C112.163 10.624 110.275 12.672 110.275 15.104C110.275 17.536 112.131 19.584 114.531 19.584ZM136.563 24H131.475L125.107 6.24H130.611L134.003 17.312H134.067L137.459 6.24H142.963L136.563 24ZM163.451 24H158.139V22.08H158.075C157.307 23.648 155.195 24.608 152.859 24.608C147.611 24.608 143.963 20.48 143.963 15.104C143.963 9.856 147.771 5.632 152.859 5.632C155.035 5.632 157.051 6.496 158.075 8.128H158.139V6.24H163.451V24ZM153.691 19.648C156.187 19.648 158.139 17.664 158.139 15.104C158.139 12.608 156.123 10.592 153.627 10.592C151.195 10.592 149.275 12.608 149.275 15.168C149.275 17.632 151.227 19.648 153.691 19.648Z" fill="white"/>
<path d="M173.214 24H167.678V18.56H173.214V24Z" fill="#0077FF"/>
</svg>
